<svg width="206" height="85" viewBox="0 0 206 85" fill="none" xmlns="http://www.w3.org/2000/svg">
<path d="M205.111 11.2282C205.601 10.9729 205.791 10.369 205.536 9.8792L201.377 1.898C201.121 1.40823 200.517 1.21811 200.028 1.47335C199.538 1.72859 199.348 2.33254 199.603 2.82231L203.3 9.91671L196.206 13.6139C195.716 13.8692 195.526 14.4731 195.781 14.9629C196.036 15.4526 196.64 15.6428 197.13 15.3875L205.111 11.2282ZM102.779 42.3543L101.787 42.478L102.779 42.3543ZM0.909268 74.3673C0.608997 75.3212 0.609024 75.3212 0.609056 75.3212C0.609071 75.3212 0.609106 75.3212 0.609137 75.3212C0.609199 75.3212 0.609276 75.3212 0.609368 75.3213C0.609553 75.3213 0.609799 75.3214 0.610106 75.3215C0.610719 75.3217 0.611577 75.322 0.612677 75.3223C0.614878 75.323 0.618051 75.324 0.622189 75.3253C0.630467 75.3279 0.642609 75.3317 0.658567 75.3366C0.690483 75.3466 0.737662 75.3612 0.79972 75.3803C0.923833 75.4185 1.10746 75.4745 1.34751 75.5466C1.8276 75.6907 2.53342 75.899 3.44021 76.1565L3.98668 74.2326C3.08999 73.9779 2.39373 73.7725 1.9226 73.6311C1.68704 73.5604 1.50777 73.5056 1.3879 73.4687C1.32796 73.4503 1.28287 73.4363 1.25301 73.427C1.23809 73.4224 1.22697 73.4189 1.2197 73.4166C1.21607 73.4155 1.21341 73.4147 1.21171 73.4141C1.21086 73.4139 1.21026 73.4137 1.2099 73.4136C1.20971 73.4135 1.20959 73.4135 1.20953 73.4134C1.20951 73.4134 1.20949 73.4134 1.20949 73.4134C1.20949 73.4134 1.2095 73.4134 1.2095 73.4134C1.20952 73.4134 1.20954 73.4134 0.909268 74.3673ZM9.09904 77.6769C10.8116 78.1132 12.7426 78.5848 14.8532 79.0687L15.3001 77.1193C13.2064 76.6392 11.2911 76.1715 9.59276 75.7388L9.09904 77.6769ZM20.6142 80.3179C22.4686 80.6969 24.4117 81.0716 26.4255 81.4311L26.777 79.4622C24.7807 79.1058 22.8539 78.7343 21.0146 78.3584L20.6142 80.3179ZM32.2358 82.3897C34.1473 82.6786 36.1023 82.9472 38.0879 83.1877L38.3284 81.2022C36.3636 80.9642 34.4281 80.6983 32.5346 80.4122L32.2358 82.3897ZM43.9683 83.8037C45.9221 83.9751 47.8927 84.1136 49.8685 84.2121L49.9681 82.2146C48.0193 82.1174 46.0738 81.9808 44.1431 81.8114L43.9683 83.8037ZM55.7846 84.3807C57.7705 84.3926 59.7506 84.357 61.7128 84.2667L61.6209 82.2688C59.6961 82.3574 57.7508 82.3924 55.7966 82.3807L55.7846 84.3807ZM67.6341 83.8135C69.6308 83.5953 71.5963 83.3094 73.5166 82.9473L73.146 80.9819C71.2812 81.3336 69.3672 81.6122 67.4168 81.8254L67.6341 83.8135ZM79.3198 81.5684C81.2776 80.997 83.168 80.3258 84.973 79.5437L84.1778 77.7086C82.457 78.4543 80.6457 79.098 78.7595 79.6485L79.3198 81.5684ZM90.297 76.737C92.0153 75.6422 93.615 74.4069 95.0727 73.0177L93.693 71.5698C92.3359 72.8631 90.8399 74.0196 89.2223 75.0503L90.297 76.737ZM98.9927 68.3806C100.098 66.738 101.047 64.9458 101.821 62.9947L99.9622 62.2569C99.24 64.0765 98.3577 65.7416 97.3333 67.2642L98.9927 68.3806ZM103.497 57.2166C103.862 55.345 104.094 53.3599 104.185 51.256L102.186 51.1704C102.1 53.1813 101.879 55.0668 101.534 56.834L103.497 57.2166ZM104.076 45.2808C104.003 44.287 103.901 43.2704 103.772 42.2306L101.787 42.478C101.913 43.4861 102.011 44.4697 102.082 45.4292L104.076 45.2808ZM103.772 42.2306C103.646 41.2225 103.548 40.239 103.476 39.2795L101.482 39.4278C101.556 40.4216 101.657 41.4382 101.787 42.478L103.772 42.2306ZM103.372 33.5383C103.458 31.5273 103.68 29.6419 104.024 27.8747L102.061 27.492C101.696 29.3637 101.464 31.3487 101.374 33.4526L103.372 33.5383ZM105.596 22.4517C106.318 20.6321 107.201 18.9671 108.225 17.4445L106.566 16.328C105.461 17.9707 104.512 19.7628 103.737 21.7139L105.596 22.4517ZM111.865 13.1388C113.223 11.8456 114.719 10.689 116.336 9.65833L115.261 7.97164C113.543 9.06651 111.943 10.3018 110.486 11.691L111.865 13.1388ZM121.381 7.00008C123.101 6.25439 124.913 5.61067 126.799 5.06012L126.239 3.14023C124.281 3.71165 122.39 4.38283 120.585 5.16496L121.381 7.00008ZM132.412 3.72673C134.277 3.3751 136.191 3.09643 138.142 2.88329L137.924 0.895128C135.928 1.11334 133.962 1.39927 132.042 1.76137L132.412 3.72673ZM143.938 2.43986C145.862 2.35127 147.808 2.31622 149.762 2.32792L149.774 0.32796C147.788 0.316067 145.808 0.351662 143.846 0.441972L143.938 2.43986ZM155.59 2.49404C157.539 2.59121 159.485 2.72789 161.415 2.89729L161.59 0.904946C159.636 0.73351 157.666 0.595035 155.69 0.496523L155.59 2.49404ZM167.23 3.50642C169.195 3.74442 171.13 4.01033 173.024 4.29646L173.323 2.31891C171.411 2.03006 169.456 1.76146 167.471 1.52094L167.23 3.50642ZM178.781 5.24642C180.778 5.60282 182.705 5.97431 184.544 6.35021L184.944 4.39071C183.09 4.01172 181.147 3.63707 179.133 3.27755L178.781 5.24642ZM190.258 7.58935C192.352 8.06941 194.267 8.53719 195.966 8.96982L196.459 7.03172C194.747 6.59545 192.816 6.12385 190.705 5.63994L190.258 7.58935ZM201.572 10.476C202.468 10.7307 203.165 10.9361 203.636 11.0776C203.871 11.1483 204.051 11.203 204.171 11.2399C204.23 11.2584 204.276 11.2723 204.305 11.2816C204.32 11.2863 204.331 11.2897 204.339 11.292C204.342 11.2932 204.345 11.294 204.347 11.2945C204.348 11.2948 204.348 11.295 204.349 11.2951C204.349 11.2952 204.349 11.2952 204.349 11.2952C204.349 11.2952 204.349 11.2952 204.349 11.2952C204.349 11.2952 204.349 11.2952 204.349 11.2952C204.349 11.2952 204.349 11.2952 204.649 10.3414C204.949 9.3875 204.949 9.38749 204.949 9.38748C204.949 9.38748 204.949 9.38747 204.949 9.38746C204.949 9.38744 204.949 9.38741 204.949 9.38739C204.949 9.38733 204.949 9.38725 204.948 9.38715C204.948 9.38696 204.947 9.38669 204.946 9.38635C204.944 9.38566 204.94 9.38466 204.936 9.38336C204.928 9.38077 204.916 9.37698 204.9 9.37201C204.868 9.36208 204.821 9.34745 204.759 9.32835C204.635 9.29016 204.451 9.23411 204.211 9.16204C203.731 9.01791 203.025 8.80969 202.118 8.55212L201.572 10.476Z" fill="#FF9753"/>
</svg>
