<svg width="207" height="88" viewBox="0 0 207 88" fill="none" xmlns="http://www.w3.org/2000/svg">
<path d="M206.089 73.0917C206.601 73.2973 206.85 73.8795 206.645 74.3921L203.294 82.7452C203.089 83.2578 202.507 83.5067 201.994 83.3011C201.481 83.0955 201.233 82.5133 201.438 82.0007L204.416 74.5757L196.991 71.5976C196.479 71.392 196.23 70.8098 196.435 70.2972C196.641 69.7846 197.223 69.5358 197.736 69.7414L206.089 73.0917ZM103.147 44.3238L102.147 44.3355L103.147 44.3238ZM0.577917 14.6278C0.184858 13.7083 0.184888 13.7083 0.184923 13.7083C0.184939 13.7083 0.184977 13.7083 0.185009 13.7083C0.185075 13.7082 0.185155 13.7082 0.185249 13.7082C0.185439 13.7081 0.185688 13.708 0.185995 13.7078C0.186611 13.7076 0.187462 13.7072 0.188548 13.7067C0.190721 13.7058 0.193835 13.7045 0.197883 13.7028C0.20598 13.6993 0.217818 13.6943 0.233349 13.6877C0.264411 13.6746 0.310251 13.6553 0.3705 13.6301C0.490998 13.5796 0.669141 13.5057 0.901986 13.4104C1.36767 13.22 2.05222 12.9446 2.93211 12.6029L3.65622 14.4672C2.78798 14.8044 2.11441 15.0754 1.659 15.2616C1.4313 15.3548 1.25815 15.4267 1.1425 15.4751C1.08467 15.4993 1.04122 15.5176 1.01251 15.5297C0.998157 15.5358 0.987488 15.5403 0.98055 15.5433C0.977081 15.5447 0.974545 15.5458 0.972947 15.5465C0.972149 15.5468 0.971585 15.5471 0.971256 15.5472C0.971092 15.5473 0.970986 15.5473 0.97094 15.5474C0.970916 15.5474 0.970908 15.5474 0.970914 15.5474C0.970917 15.5474 0.970933 15.5474 0.970934 15.5474C0.970954 15.5474 0.970977 15.5473 0.577917 14.6278ZM8.4864 10.5547C10.1639 9.96595 12.0565 9.32697 14.1269 8.66728L14.7341 10.5729C12.6836 11.2262 10.8095 11.859 9.14873 12.4419L8.4864 10.5547ZM19.8438 6.93675C21.6663 6.41414 23.5769 5.89425 25.5582 5.3909L26.0506 7.32932C24.0905 7.82732 22.1995 8.34185 20.395 8.85927L19.8438 6.93675ZM31.3479 4.0202C33.2552 3.60244 35.2076 3.20903 37.192 2.85037L37.5477 4.81848C35.5892 5.17247 33.6609 5.56099 31.7759 5.97388L31.3479 4.0202ZM43.064 1.91159C45.0231 1.64081 47.0007 1.41156 48.9849 1.23323L49.1639 3.22521C47.2138 3.40047 45.2679 3.62599 43.3379 3.89276L43.064 1.91159ZM54.9409 0.860559C56.9402 0.792894 58.9352 0.7863 60.9139 0.850508L60.849 2.84946C58.9181 2.7868 56.9674 2.79312 55.0086 2.85941L54.9409 0.860559ZM66.8932 1.27697C68.9052 1.50434 70.8875 1.81931 72.8262 2.23317L72.4087 4.1891C70.5393 3.79004 68.6217 3.48504 66.6686 3.26432L66.8932 1.27697ZM78.6323 3.82865C80.5572 4.48789 82.4195 5.26913 84.2024 6.18573L83.288 7.96444C81.5977 7.09547 79.8252 6.35123 77.9843 5.72076L78.6323 3.82865ZM89.352 9.39665C90.9619 10.6044 92.4731 11.9607 93.8688 13.4781L92.3968 14.832C91.0865 13.4076 89.6668 12.1331 88.1518 10.9965L89.352 9.39665ZM97.5515 18.3004C98.5918 19.9508 99.524 21.7377 100.337 23.6692L98.4939 24.4452C97.7218 22.6114 96.8398 20.9219 95.8596 19.3669L97.5515 18.3004ZM102.274 29.3854C102.766 31.2412 103.167 33.204 103.469 35.2785L101.49 35.5674C101.198 33.5638 100.812 31.676 100.341 29.898L102.274 29.3854ZM104.05 41.2389C104.102 42.2407 104.135 43.265 104.147 44.3122L102.147 44.3355C102.135 43.3146 102.104 42.3175 102.053 41.3435L104.05 41.2389ZM104.147 44.3122C104.159 45.333 104.191 46.3302 104.242 47.3041L102.245 47.4088C102.192 46.4069 102.16 45.3826 102.147 44.3355L104.147 44.3122ZM104.804 53.0803C105.096 55.0838 105.482 56.9716 105.954 58.7497L104.02 59.2622C103.528 57.4064 103.128 55.4437 102.825 53.3692L104.804 53.0803ZM107.801 64.2024C108.573 66.0363 109.455 67.7258 110.435 69.2808L108.743 70.3473C107.703 68.6968 106.77 66.9099 105.957 64.9785L107.801 64.2024ZM113.898 73.8156C115.208 75.2401 116.628 76.5146 118.143 77.6511L116.943 79.251C115.333 78.0433 113.821 76.6869 112.426 75.1696L113.898 73.8156ZM123.006 80.6832C124.697 81.5522 126.469 82.2964 128.31 82.9269L127.662 84.819C125.737 84.1597 123.875 83.3785 122.092 82.4619L123.006 80.6832ZM133.886 84.4585C135.755 84.8576 137.673 85.1626 139.626 85.3833L139.401 87.3707C137.389 87.1433 135.407 86.8283 133.468 86.4145L133.886 84.4585ZM145.445 85.7982C147.376 85.8608 149.327 85.8545 151.286 85.7882L151.354 87.7871C149.354 87.8547 147.359 87.8613 145.381 87.7971L145.445 85.7982ZM157.131 85.4224C159.081 85.2472 161.027 85.0217 162.957 84.7549L163.23 86.7361C161.271 87.0068 159.294 87.2361 157.31 87.4144L157.131 85.4224ZM168.747 83.8292C170.705 83.4752 172.634 83.0867 174.519 82.6738L174.947 84.6275C173.039 85.0452 171.087 85.4386 169.103 85.7973L168.747 83.8292ZM180.244 81.3183C182.204 80.8203 184.095 80.3058 185.899 79.7884L186.451 81.7109C184.628 82.2335 182.718 82.7534 180.736 83.2567L180.244 81.3183ZM191.56 78.0748C193.611 77.4214 195.485 76.7887 197.146 76.2058L197.808 78.0929C196.131 78.6817 194.238 79.3207 192.168 79.9804L191.56 78.0748ZM202.638 74.1805C203.507 73.8432 204.18 73.5722 204.635 73.386C204.863 73.2929 205.036 73.221 205.152 73.1726C205.21 73.1484 205.253 73.1301 205.282 73.1179C205.296 73.1119 205.307 73.1073 205.314 73.1044C205.317 73.1029 205.32 73.1018 205.322 73.1011C205.322 73.1008 205.323 73.1006 205.323 73.1004C205.323 73.1003 205.324 73.1003 205.324 73.1003C205.324 73.1003 205.324 73.1003 205.324 73.1003C205.324 73.1003 205.324 73.1003 205.324 73.1003C205.324 73.1003 205.324 73.1003 205.717 74.0198C206.11 74.9393 206.11 74.9393 206.11 74.9394C206.11 74.9394 206.11 74.9394 206.109 74.9394C206.109 74.9394 206.109 74.9394 206.109 74.9395C206.109 74.9396 206.109 74.9397 206.108 74.9398C206.108 74.9401 206.107 74.9404 206.106 74.9409C206.104 74.9418 206.101 74.9432 206.097 74.9449C206.089 74.9483 206.077 74.9533 206.061 74.9599C206.03 74.973 205.984 74.9924 205.924 75.0176C205.803 75.068 205.625 75.142 205.393 75.2372C204.927 75.4276 204.242 75.703 203.362 76.0448L202.638 74.1805Z" fill="#FF9753"/>
</svg>
