<svg width="181" height="56" viewBox="0 0 181 56" fill="none" xmlns="http://www.w3.org/2000/svg">
<rect width="56" height="56" rx="16" fill="#FF5C00"/>
<path d="M70.92 10.2L72.67 6.86H73.83L71.45 11.23V14H70.38V11.27L68 6.86H69.17L70.92 10.2ZM80.8848 10.42C80.8848 11.16 80.7614 11.8067 80.5148 12.36C80.2681 12.9067 79.8981 13.3333 79.4048 13.64C78.9114 13.9467 78.2981 14.1 77.5648 14.1C76.8114 14.1 76.1881 13.9467 75.6948 13.64C75.2014 13.3333 74.8348 12.9033 74.5948 12.35C74.3548 11.7967 74.2348 11.15 74.2348 10.41C74.2348 9.67667 74.3548 9.03667 74.5948 8.49C74.8414 7.94333 75.2114 7.51667 75.7048 7.21C76.1981 6.90333 76.8214 6.75 77.5748 6.75C78.3081 6.75 78.9181 6.90333 79.4048 7.21C79.8981 7.51 80.2681 7.93667 80.5148 8.49C80.7614 9.03667 80.8848 9.68 80.8848 10.42ZM75.3748 10.42C75.3748 11.2733 75.5514 11.9467 75.9048 12.44C76.2581 12.9333 76.8114 13.18 77.5648 13.18C78.3248 13.18 78.8781 12.9333 79.2248 12.44C79.5714 11.9467 79.7448 11.2733 79.7448 10.42C79.7448 9.56667 79.5714 8.89667 79.2248 8.41C78.8848 7.92333 78.3348 7.68 77.5748 7.68C76.8148 7.68 76.2581 7.92333 75.9048 8.41C75.5514 8.89667 75.3748 9.56667 75.3748 10.42ZM87.9763 11.48C87.9763 11.9733 87.873 12.42 87.6663 12.82C87.4597 13.2133 87.1463 13.5267 86.7263 13.76C86.313 13.9867 85.7863 14.1 85.1463 14.1C84.2397 14.1 83.5497 13.86 83.0763 13.38C82.6097 12.8933 82.3763 12.2533 82.3763 11.46V6.86H83.4563V11.41C83.4563 12.59 84.0363 13.18 85.1963 13.18C85.7963 13.18 86.2297 13.02 86.4963 12.7C86.7697 12.38 86.9063 11.9467 86.9063 11.4V6.86H87.9763V11.48ZM91.8191 6.86C92.7325 6.86 93.4058 7.03 93.8391 7.37C94.2791 7.71 94.4991 8.22667 94.4991 8.92C94.4991 9.28667 94.4291 9.59667 94.2891 9.85C94.1558 10.0967 93.9825 10.3 93.7691 10.46C93.5558 10.6133 93.3325 10.7367 93.0991 10.83L95.0991 14H93.8591L92.1391 11.11H90.8991V14H89.8191V6.86H91.8191ZM91.7491 7.78H90.8991V10.21H91.7991C92.3525 10.21 92.7558 10.1067 93.0091 9.9C93.2625 9.68667 93.3891 9.37333 93.3891 8.96C93.3891 8.53333 93.2558 8.23 92.9891 8.05C92.7225 7.87 92.3091 7.78 91.7491 7.78Z" fill="white" fill-opacity="0.5"/>
<path d="M125.73 45.36C125.73 46.5667 125.397 47.4767 124.73 48.09C124.07 48.6967 123.143 49 121.95 49H119.95V41.86H122.16C122.887 41.86 123.517 41.9933 124.05 42.26C124.583 42.5267 124.997 42.92 125.29 43.44C125.583 43.9533 125.73 44.5933 125.73 45.36ZM124.6 45.39C124.6 44.49 124.38 43.83 123.94 43.41C123.507 42.9833 122.89 42.77 122.09 42.77H121.03V48.09H121.9C123.7 48.09 124.6 47.19 124.6 45.39ZM131.539 49L130.779 46.94H128.019L127.259 49H126.139L128.849 41.83H129.969L132.669 49H131.539ZM129.759 43.99C129.739 43.9167 129.702 43.8067 129.649 43.66C129.602 43.5133 129.555 43.36 129.509 43.2C129.462 43.04 129.425 42.91 129.399 42.81C129.345 43.0167 129.285 43.2367 129.219 43.47C129.152 43.7033 129.099 43.8767 129.059 43.99L128.339 46H130.479L129.759 43.99ZM137.732 47.07C137.732 47.7033 137.502 48.2 137.042 48.56C136.582 48.92 135.952 49.1 135.152 49.1C134.765 49.1 134.398 49.0667 134.052 49C133.712 48.94 133.422 48.85 133.182 48.73V47.71C133.448 47.83 133.762 47.94 134.122 48.04C134.482 48.1333 134.848 48.18 135.222 48.18C135.702 48.18 136.062 48.0867 136.302 47.9C136.542 47.7133 136.662 47.4633 136.662 47.15C136.662 46.93 136.605 46.7467 136.492 46.6C136.385 46.4467 136.215 46.3067 135.982 46.18C135.748 46.0533 135.442 45.9133 135.062 45.76C134.708 45.6267 134.395 45.47 134.122 45.29C133.855 45.11 133.645 44.8867 133.492 44.62C133.338 44.3533 133.262 44.0267 133.262 43.64C133.262 43.0533 133.475 42.5933 133.902 42.26C134.328 41.9267 134.888 41.76 135.582 41.76C135.968 41.76 136.325 41.8 136.652 41.88C136.985 41.9533 137.302 42.0567 137.602 42.19L137.262 43.08C136.988 42.9667 136.708 42.8733 136.422 42.8C136.142 42.7267 135.852 42.69 135.552 42.69C135.158 42.69 134.858 42.7767 134.652 42.95C134.445 43.1233 134.342 43.35 134.342 43.63C134.342 43.85 134.392 44.0367 134.492 44.19C134.592 44.3367 134.752 44.47 134.972 44.59C135.192 44.71 135.482 44.8433 135.842 44.99C136.242 45.15 136.582 45.32 136.862 45.5C137.148 45.6733 137.365 45.8867 137.512 46.14C137.658 46.3867 137.732 46.6967 137.732 47.07ZM144.7 49H143.62V45.74H140.21V49H139.13V41.86H140.21V44.82H143.62V41.86H144.7V49ZM148.7 41.86C149.607 41.86 150.293 41.9933 150.76 42.26C151.233 42.5267 151.47 42.9867 151.47 43.64C151.47 44.06 151.357 44.41 151.13 44.69C150.91 44.9633 150.593 45.1367 150.18 45.21V45.26C150.46 45.3067 150.713 45.3933 150.94 45.52C151.173 45.6467 151.357 45.8267 151.49 46.06C151.623 46.2867 151.69 46.5867 151.69 46.96C151.69 47.6067 151.463 48.11 151.01 48.47C150.557 48.8233 149.943 49 149.17 49H146.61V41.86H148.7ZM148.88 44.84C149.44 44.84 149.823 44.75 150.03 44.57C150.243 44.39 150.35 44.1233 150.35 43.77C150.35 43.4167 150.223 43.1633 149.97 43.01C149.717 42.85 149.313 42.77 148.76 42.77H147.69V44.84H148.88ZM147.69 45.72V48.1H149C149.573 48.1 149.973 47.9867 150.2 47.76C150.433 47.5333 150.55 47.2333 150.55 46.86C150.55 46.52 150.43 46.2467 150.19 46.04C149.957 45.8267 149.537 45.72 148.93 45.72H147.69ZM159.473 45.42C159.473 46.16 159.349 46.8067 159.103 47.36C158.856 47.9067 158.486 48.3333 157.993 48.64C157.499 48.9467 156.886 49.1 156.153 49.1C155.399 49.1 154.776 48.9467 154.283 48.64C153.789 48.3333 153.423 47.9033 153.183 47.35C152.943 46.7967 152.823 46.15 152.823 45.41C152.823 44.6767 152.943 44.0367 153.183 43.49C153.429 42.9433 153.799 42.5167 154.293 42.21C154.786 41.9033 155.409 41.75 156.163 41.75C156.896 41.75 157.506 41.9033 157.993 42.21C158.486 42.51 158.856 42.9367 159.103 43.49C159.349 44.0367 159.473 44.68 159.473 45.42ZM153.963 45.42C153.963 46.2733 154.139 46.9467 154.493 47.44C154.846 47.9333 155.399 48.18 156.153 48.18C156.913 48.18 157.466 47.9333 157.813 47.44C158.159 46.9467 158.333 46.2733 158.333 45.42C158.333 44.5667 158.159 43.8967 157.813 43.41C157.473 42.9233 156.923 42.68 156.163 42.68C155.403 42.68 154.846 42.9233 154.493 43.41C154.139 43.8967 153.963 44.5667 153.963 45.42ZM165.279 49L164.519 46.94H161.759L160.999 49H159.879L162.589 41.83H163.709L166.409 49H165.279ZM163.499 43.99C163.479 43.9167 163.442 43.8067 163.389 43.66C163.342 43.5133 163.296 43.36 163.249 43.2C163.202 43.04 163.166 42.91 163.139 42.81C163.086 43.0167 163.026 43.2367 162.959 43.47C162.892 43.7033 162.839 43.8767 162.799 43.99L162.079 46H164.219L163.499 43.99ZM169.372 41.86C170.285 41.86 170.959 42.03 171.392 42.37C171.832 42.71 172.052 43.2267 172.052 43.92C172.052 44.2867 171.982 44.5967 171.842 44.85C171.709 45.0967 171.535 45.3 171.322 45.46C171.109 45.6133 170.885 45.7367 170.652 45.83L172.652 49H171.412L169.692 46.11H168.452V49H167.372V41.86H169.372ZM169.302 42.78H168.452V45.21H169.352C169.905 45.21 170.309 45.1067 170.562 44.9C170.815 44.6867 170.942 44.3733 170.942 43.96C170.942 43.5333 170.809 43.23 170.542 43.05C170.275 42.87 169.862 42.78 169.302 42.78ZM179.48 45.36C179.48 46.5667 179.147 47.4767 178.48 48.09C177.82 48.6967 176.893 49 175.7 49H173.7V41.86H175.91C176.637 41.86 177.267 41.9933 177.8 42.26C178.333 42.5267 178.747 42.92 179.04 43.44C179.333 43.9533 179.48 44.5933 179.48 45.36ZM178.35 45.39C178.35 44.49 178.13 43.83 177.69 43.41C177.257 42.9833 176.64 42.77 175.84 42.77H174.78V48.09H175.65C177.45 48.09 178.35 47.19 178.35 45.39Z" fill="white" fill-opacity="0.5"/>
<circle cx="73.7003" cy="22.6773" r="3.4347" fill="white"/>
<circle cx="85.0451" cy="34.0215" r="3.4347" fill="white"/>
<path d="M76.2618 19.2422L88.4894 19.2422L81.3179 31.9313C81.3179 31.9313 80.5699 33.2463 80.776 34.6791C80.8688 35.3238 81.1615 36.0097 81.5218 36.5044C81.9622 37.1088 82.4737 37.4567 82.4737 37.4567L70.2756 37.4567L77.454 24.7871C77.454 24.7871 78.2147 23.5506 77.9497 21.9805C77.6848 20.4103 76.2618 19.2422 76.2618 19.2422Z" fill="white"/>
<path d="M167.02 31.3128V34.4031V35.9482C167.02 35.9482 166.967 36.8213 166.495 37.1798C166.023 37.5382 164.817 37.4934 164.817 37.4934H162.614V19.2769H169.907C171.305 19.2769 172.539 19.5354 173.611 20.0526C174.69 20.5614 175.523 21.2912 176.109 22.242C176.703 23.1846 177 24.2564 177 25.4575C177 27.2341 176.36 28.6562 175.079 29.7238C173.807 30.7831 172.058 31.3128 169.832 31.3128H167.02ZM167.02 27.9222H169.907C170.761 27.9222 171.41 27.7095 171.853 27.2841C172.305 26.8587 172.531 26.2582 172.531 25.4825C172.531 24.6317 172.301 23.9519 171.841 23.4431C171.38 22.9343 170.753 22.6758 169.957 22.6674H168.489C168.489 22.6674 167.634 22.6186 167.327 22.977C167.02 23.3355 167.02 23.9811 167.02 23.9811V25.2948V27.9222Z" fill="white"/>
<path d="M145.85 19.2782L149.929 31.9521L153.997 19.2782H159.796V37.4947H155.378V33.2408L155.591 28.8869L155.698 26.7099C155.698 26.7099 155.853 25.5882 155.639 25.5434C155.426 25.4986 155.252 26.1531 155.252 26.1531L154.7 27.7734L153.595 31.0138L152.49 34.2542L151.938 35.8745C151.938 35.8745 151.748 36.6013 151.354 37.0733C150.961 37.5453 149.929 37.4947 149.929 37.4947H148.473L144.042 24.5204L144.469 33.2408V37.4947H140.062V28.3864V23.8323V21.5552C140.062 21.5552 140.063 20.3058 140.678 19.7664C141.294 19.227 142.956 19.2782 142.956 19.2782H145.85Z" fill="white"/>
<path d="M132.515 34.0903H126.477L125.422 37.4934H120.715L127.418 19.2769H131.561L138.315 37.4934H135.948C135.948 37.4934 134.64 37.4934 133.966 37.1461C133.292 36.7989 133.049 35.7918 133.049 35.7918L132.515 34.0903ZM127.942 30.4592C128.234 30.7728 129.496 30.6997 129.496 30.6997H131.461L129.49 24.3815L128.51 27.5406L128.021 29.1202C128.021 29.1202 127.65 30.1456 127.942 30.4592Z" fill="white"/>
<path d="M113.531 32.5407L115.351 25.9096L116.261 22.5941L116.716 20.9364C116.716 20.9364 116.992 20.145 117.542 19.6858C118.093 19.2266 119.632 19.2786 119.632 19.2786H122.092L115.941 37.4952H113.766C113.766 37.4952 112.137 37.5736 111.474 37.1479C110.81 36.7223 110.471 35.5574 110.471 35.5574L105.02 19.2786H109.903L113.531 32.5407Z" fill="white"/>
<path d="M102.825 29.7739H95.896V34.1153H103.089C103.089 34.1153 103.458 34.0826 103.784 34.3411C104.11 34.5996 104.081 35.0068 104.081 35.0068V37.4934H91.4897V19.2769H104.106V22.6674H97.0318C97.0318 22.6674 96.4811 22.6186 96.144 22.9882C95.8068 23.3579 95.896 23.6939 95.896 23.6939V26.5084H102.825V29.7739Z" fill="white"/>
<circle cx="19.0436" cy="20.0069" r="5.14853" fill="white"/>
<circle cx="36.0489" cy="37.0117" r="5.14853" fill="white"/>
<path d="M22.8831 14.8579L41.2119 14.8578L30.462 33.8786C30.462 33.8786 29.3408 35.8497 29.6497 37.9974C29.7888 38.9639 30.2276 39.992 30.7677 40.7335C31.4278 41.6396 32.1946 42.1611 32.1946 42.1611L13.9099 42.1611L24.6702 23.1696C24.6702 23.1696 25.8104 21.3161 25.4132 18.9625C25.0161 16.6089 22.8831 14.8579 22.8831 14.8579Z" fill="white"/>
</svg>
