<svg width="215" height="56" viewBox="0 0 215 56" fill="none" xmlns="http://www.w3.org/2000/svg">
<circle cx="13.0801" cy="16.9393" r="6.70507" fill="#FF5C00"/>
<circle cx="35.2261" cy="39.0851" r="6.70507" fill="#FF5C00"/>
<path d="M18.0803 10.2335L41.9504 10.2335L27.9505 35.0046C27.9505 35.0046 26.4904 37.5717 26.8927 40.3687C27.0738 41.6274 27.6452 42.9664 28.3487 43.932C29.2083 45.112 30.2069 45.7912 30.2069 45.7912L6.39436 45.7912L20.4077 21.0581C20.4077 21.0581 21.8926 18.6443 21.3754 15.5791C20.8582 12.5139 18.0803 10.2335 18.0803 10.2335Z" fill="#FF5C00"/>
<path d="M195.254 33.797V39.8297V42.8461C195.254 42.8461 195.152 44.5505 194.23 45.2502C193.309 45.95 190.954 45.8625 190.954 45.8625H186.653V10.301H200.891C203.619 10.301 206.029 10.8058 208.12 11.8153C210.228 12.8086 211.853 14.2333 212.997 16.0895C214.157 17.9295 214.737 20.0218 214.737 22.3665C214.737 25.8347 213.487 28.6109 210.987 30.6951C208.504 32.763 205.089 33.797 200.744 33.797H195.254ZM195.254 27.1781H200.891C202.557 27.1781 203.823 26.7628 204.689 25.9324C205.571 25.102 206.013 23.9297 206.013 22.4154C206.013 20.7545 205.563 19.4275 204.665 18.4342C203.766 17.441 202.541 16.9362 200.989 16.92H198.122C198.122 16.92 196.453 16.8247 195.854 17.5244C195.254 18.2241 195.254 19.4845 195.254 19.4845V22.049V27.1781Z" fill="#FF5C00"/>
<path d="M153.926 10.3036L161.891 35.0451L169.831 10.3036H181.153V45.865H172.526V37.5608L172.943 29.0612L173.151 24.8115C173.151 24.8115 173.454 22.6217 173.037 22.5342C172.62 22.4467 172.281 23.7246 172.281 23.7246L171.203 26.8875L169.047 33.2133L166.89 39.5392L165.812 42.7021C165.812 42.7021 165.44 44.121 164.672 45.0424C163.905 45.9638 161.891 45.865 161.891 45.865H159.048L150.397 20.5372L151.231 37.5608V45.865H142.629V28.0843V19.1939V14.7487C142.629 14.7487 142.629 12.3097 143.831 11.2567C145.032 10.2037 148.278 10.3036 148.278 10.3036H153.926Z" fill="#FF5C00"/>
<path d="M127.895 39.2191H116.107L114.049 45.8625H104.859L117.945 10.301H126.032L139.217 45.8625H134.597C134.597 45.8625 132.044 45.8625 130.728 45.1846C129.411 44.5067 128.936 42.5408 128.936 42.5408L127.895 39.2191ZM118.968 32.1307C119.539 32.7429 122.001 32.6002 122.001 32.6002H125.836L121.989 20.266L120.077 26.4331L119.122 29.5167C119.122 29.5167 118.398 31.5184 118.968 32.1307Z" fill="#FF5C00"/>
<path d="M90.8354 36.194L94.3888 23.2493L96.1654 16.7769L97.0538 13.5407C97.0538 13.5407 97.5916 11.9959 98.6666 11.0994C99.7416 10.2029 102.745 10.3045 102.745 10.3045H107.549L95.5405 45.8659H91.295C91.295 45.8659 88.1138 46.019 86.8194 45.1881C85.525 44.3572 84.8633 42.0831 84.8633 42.0831L74.2202 10.3045H83.7531L90.8354 36.194Z" fill="#FF5C00"/>
<path d="M69.9364 30.7928H56.409V39.268H70.4516C70.4516 39.268 71.1722 39.2041 71.8084 39.7087C72.4446 40.2133 72.387 41.0082 72.387 41.0082V45.8625H47.8074V10.301H72.436V16.9199H58.6263C58.6263 16.9199 57.5513 16.8246 56.8931 17.5462C56.2349 18.2678 56.409 18.9237 56.409 18.9237V24.4181H69.9364V30.7928Z" fill="#FF5C00"/>
</svg>
