<svg width="3981" height="1038" viewBox="0 0 3981 1038" fill="none" xmlns="http://www.w3.org/2000/svg">
<circle cx="242.449" cy="313.983" r="124.283" fill="#313131"/>
<circle cx="652.942" cy="724.471" r="124.283" fill="#313131"/>
<path d="M335.133 189.685L777.581 189.685L518.084 648.836C518.084 648.836 491.02 696.419 498.476 748.263C501.832 771.594 512.425 796.412 525.464 814.31C541.398 836.183 559.908 848.772 559.908 848.772L118.525 848.772L378.272 390.327C378.272 390.327 405.797 345.585 396.209 288.77C386.622 231.955 335.133 189.685 335.133 189.685Z" fill="#313131"/>
<path d="M3619.18 626.452V738.273V794.183C3619.18 794.183 3617.28 825.777 3600.2 838.746C3583.12 851.716 3539.46 850.094 3539.46 850.094H3459.74V190.937H3723.66C3774.23 190.937 3818.9 200.293 3857.66 219.005C3896.72 237.416 3926.85 263.825 3948.05 298.231C3969.55 332.336 3980.3 371.119 3980.3 414.58C3980.3 478.865 3957.14 530.324 3910.8 568.956C3864.77 607.286 3801.48 626.452 3720.93 626.452H3619.18ZM3619.18 503.765H3723.66C3754.55 503.765 3778.01 496.069 3794.06 480.676C3810.42 465.284 3818.59 443.553 3818.59 415.485C3818.59 384.7 3810.27 360.103 3793.61 341.692C3776.95 323.282 3754.24 313.925 3725.47 313.624H3672.33C3672.33 313.624 3641.4 311.857 3630.29 324.827C3619.18 337.796 3619.18 361.159 3619.18 361.159V408.694V503.765Z" fill="#313131"/>
<path d="M2853.14 190.984L3000.77 649.587L3147.94 190.984H3252.87C3252.87 190.984 3309.2 189 3333.5 208C3357.8 227 3357.8 273.379 3357.8 273.379V355.773V520.563V850.141H3197.9V696.217L3205.63 538.671L3209.49 459.898C3209.49 459.898 3215.09 419.309 3207.37 417.688C3199.64 416.067 3193.36 439.752 3193.36 439.752L3173.38 498.379L3133.4 615.633L3093.43 732.887L3073.44 791.514L3065.5 814C3065.5 814 3047 850.5 3000.77 850.141C2954.53 849.783 2937 814 2937 814L2928.03 791.458L2907.99 732.774L2867.9 615.407L2787.73 380.673L2803.17 696.217V850.141H2643.73V520.562V355.773V273.379C2643.73 273.379 2643.73 228.17 2666.01 208.652C2688.28 189.133 2748.44 190.984 2748.44 190.984H2853.14Z" fill="#313131"/>
<path d="M2370.62 726.955H2152.14L2113.98 850.094H1943.64L2186.2 190.937H2336.1L2580.48 850.094H2494.86C2494.86 850.094 2447.53 850.094 2423.13 837.529C2398.73 824.965 2389.93 788.525 2389.93 788.525L2370.62 726.955ZM2205.16 595.565C2215.73 606.914 2261.38 604.268 2261.38 604.268H2332.47L2261.15 375.646L2225.72 489.957L2208.01 547.113C2208.01 547.113 2194.59 584.217 2205.16 595.565Z" fill="#313131"/>
<path d="M1683.7 670.882L1749.56 430.942L1782.5 310.972L1798.96 250.986C1798.96 250.986 1808.93 222.352 1828.86 205.735C1848.78 189.117 1904.46 191.001 1904.46 191.001H1993.49L1770.91 850.159H1692.22C1692.22 850.159 1633.25 852.995 1609.26 837.594C1585.27 822.193 1573 780.041 1573 780.041L1375.73 191.001H1552.42L1683.7 670.882Z" fill="#313131"/>
<path d="M1296.32 570.767H1045.58V727.86H1305.87C1305.87 727.86 1319.23 726.677 1331.02 736.03C1342.81 745.383 1341.74 760.117 1341.74 760.117V850.094H886.143V190.937H1342.65V313.624H1086.68C1086.68 313.624 1066.75 311.856 1054.55 325.231C1042.35 338.606 1045.58 350.765 1045.58 350.765V452.608H1296.32V570.767Z" fill="#313131"/>
</svg>
