<svg width="106" height="106" viewBox="0 0 106 106" fill="none" xmlns="http://www.w3.org/2000/svg">
<path fill-rule="evenodd" clip-rule="evenodd" d="M53 106C82.2711 106 106 82.2711 106 53C106 23.7289 82.2711 0 53 0C23.7289 0 0 23.7289 0 53C0 82.2711 23.7289 106 53 106Z" fill="#FF5C00"/>
<circle cx="40.4158" cy="40.9642" r="7.9024" fill="white"/>
<circle cx="66.5167" cy="67.0645" r="7.9024" fill="white"/>
<path d="M46.309 33.0609L74.4416 33.0609L57.9417 62.2555C57.9417 62.2555 56.2209 65.2809 56.695 68.5774C56.9084 70.0609 57.5819 71.6389 58.411 72.7769C59.4241 74.1677 60.6011 74.9681 60.6011 74.9681L32.5362 74.9681L49.052 45.8185C49.052 45.8185 50.8021 42.9736 50.1925 39.3611C49.5829 35.7486 46.309 33.0609 46.309 33.0609Z" fill="white"/>
</svg>
