<svg width="133" height="181" viewBox="0 0 133 181" fill="none" xmlns="http://www.w3.org/2000/svg">
<path d="M110 86L110.902 86.4315L110.918 86.3975L110.932 86.3624L110 86ZM110 59L110.789 58.3861L110.723 58.3009L110.64 58.2318L110 59ZM122 180C122 180.552 122.448 181 123 181H132C132.552 181 133 180.552 133 180C133 179.448 132.552 179 132 179H124L124 171C124 170.448 123.552 170 123 170C122.448 170 122 170.448 122 171L122 180ZM19.0001 1C18.0903 0.584866 18.0903 0.584886 18.0903 0.584908C18.0903 0.584919 18.0903 0.584943 18.0903 0.584964C18.0902 0.585006 18.0902 0.585058 18.0902 0.585118C18.0901 0.585239 18.0901 0.585397 18.09 0.585591C18.0898 0.585981 18.0896 0.586518 18.0892 0.587202C18.0886 0.588571 18.0877 0.590528 18.0866 0.593072C18.0843 0.59816 18.0809 0.605593 18.0765 0.61535C18.0676 0.634865 18.0546 0.663676 18.0375 0.701616C18.0033 0.777496 17.953 0.889891 17.8875 1.03745C17.7565 1.33256 17.5649 1.76834 17.3214 2.33398L19.1584 3.12482C19.3988 2.56635 19.5874 2.13744 19.7155 1.84887C19.7795 1.70459 19.8284 1.59541 19.8612 1.52267C19.8776 1.4863 19.8899 1.45904 19.898 1.44106C19.9021 1.43207 19.9052 1.4254 19.9071 1.42107C19.9081 1.41891 19.9088 1.41733 19.9093 1.41634C19.9095 1.41584 19.9097 1.4155 19.9097 1.41529C19.9098 1.41519 19.9098 1.41513 19.9098 1.4151C19.9098 1.41509 19.9098 1.41509 19.9098 1.41509C19.9098 1.41509 19.9098 1.4151 19.9098 1.41511C19.9098 1.41512 19.9098 1.41513 19.0001 1ZM15.7988 5.97663C15.3576 7.06087 14.8665 8.29147 14.3383 9.65242L16.2028 10.3761C16.7269 9.02576 17.2139 7.80526 17.6513 6.73051L15.7988 5.97663ZM12.9336 13.3554C12.5 14.5248 12.0517 15.7592 11.594 17.0519L13.4793 17.7194C13.9336 16.4364 14.3785 15.2113 14.8088 14.0507L12.9336 13.3554ZM10.3093 20.7666C9.90304 21.9703 9.49327 23.213 9.08341 24.4904L10.9878 25.1014C11.3944 23.834 11.8011 22.6008 12.2043 21.4063L10.3093 20.7666ZM7.91349 28.236C7.53926 29.468 7.16767 30.726 6.80135 32.0067L8.72423 32.5567C9.08745 31.2869 9.45596 30.0394 9.82716 28.8173L7.91349 28.236ZM5.75046 35.8025C5.41435 37.0588 5.0853 38.3327 4.76558 39.6213L6.70673 40.1029C7.0234 38.8265 7.34941 37.5644 7.6825 36.3194L5.75046 35.8025ZM3.85388 43.453C3.56463 44.724 3.28615 46.0062 3.0205 47.2972L4.97946 47.7003C5.24219 46.4235 5.51771 45.1549 5.80401 43.8969L3.85388 43.453ZM2.269 51.1664C2.03354 52.4573 1.81259 53.7543 1.60814 55.0549L3.58388 55.3655C3.78568 54.0817 4.00388 52.8008 4.23654 51.5253L2.269 51.1664ZM1.04723 58.9578C0.87745 60.2651 0.726201 61.5737 0.5955 62.881L2.58558 63.08C2.71423 61.7931 2.86321 60.5041 3.03057 59.2154L1.04723 58.9578ZM0.265512 66.8196C0.176982 68.1399 0.111642 69.4564 0.0716151 70.7666L2.07068 70.8277C2.10993 69.543 2.17404 68.2507 2.26103 66.9535L0.265512 66.8196ZM0.0300207 74.7175C0.0437331 76.0507 0.0865662 77.3746 0.160875 78.6864L2.15767 78.5733C2.0852 77.294 2.04333 76.0009 2.02991 74.6969L0.0300207 74.7175ZM0.487602 82.6465C0.633342 83.976 0.81544 85.2897 1.03657 86.5843L3.00802 86.2475C2.794 84.9947 2.61733 83.7207 2.47569 82.4286L0.487602 82.6465ZM1.83798 90.4828C2.15414 91.7869 2.5157 93.067 2.92575 94.3192L4.82645 93.6969C4.43362 92.4972 4.0862 91.2676 3.78168 90.0116L1.83798 90.4828ZM4.3391 98.0695C4.87175 99.3078 5.46028 100.512 6.10817 101.678L7.85629 100.706C7.24271 99.6021 6.68367 98.4586 6.17635 97.2792L4.3391 98.0695ZM8.25297 105.082C9.02991 106.174 9.87034 107.221 10.7776 108.22L12.258 106.875C11.4055 105.937 10.6146 104.951 9.88237 103.922L8.25297 105.082ZM13.6634 111.031C14.6675 111.897 15.7356 112.712 16.8707 113.473L17.9847 111.812C16.9162 111.095 15.912 110.329 14.969 109.516L13.6634 111.031ZM20.3487 115.525C21.5123 116.125 22.7337 116.677 24.0149 117.178L24.7425 115.315C23.5243 114.839 22.3664 114.316 21.2661 113.748L20.3487 115.525ZM27.7812 118.448C28.4293 118.634 29.0906 118.809 29.7654 118.972L30.2347 117.028C29.5874 116.872 28.954 116.704 28.3341 116.526L27.7812 118.448ZM29.7654 118.972C30.4163 119.129 31.0628 119.279 31.7049 119.421L32.1377 117.469C31.5079 117.329 30.8735 117.182 30.2347 117.028L29.7654 118.972ZM35.5235 120.192C36.8366 120.43 38.1306 120.638 39.4055 120.816L39.6817 118.835C38.4343 118.661 37.1674 118.458 35.881 118.224L35.5235 120.192ZM43.3122 121.274C44.6386 121.4 45.9432 121.494 47.2263 121.556L47.3233 119.558C46.0713 119.497 44.7975 119.406 43.5015 119.283L43.3122 121.274ZM51.146 121.651C52.4775 121.651 53.7842 121.617 55.0664 121.551L54.9636 119.554C53.7157 119.618 52.4431 119.651 51.1455 119.651L51.146 121.651ZM58.9817 121.245C60.3121 121.104 61.6141 120.929 62.888 120.723L62.5673 118.748C61.3302 118.949 60.0652 119.119 58.7719 119.256L58.9817 121.245ZM66.7568 119.979C68.0614 119.689 69.3339 119.365 70.5748 119.011L70.0259 117.088C68.8227 117.431 67.5885 117.746 66.3227 118.027L66.7568 119.979ZM74.3274 117.817C75.5874 117.374 76.8113 116.9 77.9997 116.399L77.2226 114.556C76.071 115.041 74.8849 115.501 73.6637 115.93L74.3274 117.817ZM81.5874 114.755C82.7881 114.16 83.948 113.539 85.068 112.896L84.0728 111.161C82.9871 111.784 81.8629 112.386 80.6993 112.963L81.5874 114.755ZM88.4275 110.832C89.5484 110.096 90.6235 109.342 91.6534 108.576L90.4593 106.971C89.46 107.715 88.4171 108.447 87.33 109.16L88.4275 110.832ZM94.7349 106.141C95.7736 105.27 96.758 104.393 97.6893 103.517L96.3195 102.06C95.4148 102.911 94.4588 103.762 93.4503 104.608L94.7349 106.141ZM100.475 100.748C101.424 99.751 102.304 98.7687 103.116 97.8146L101.593 96.5185C100.803 97.4457 99.9488 98.4003 99.0266 99.3693L100.475 100.748ZM105.58 94.7492C106.457 93.5935 107.22 92.5128 107.873 91.538L106.211 90.4251C105.579 91.3694 104.839 92.4179 103.987 93.5403L105.58 94.7492ZM109.961 88.1829C110.274 87.6365 110.507 87.2036 110.663 86.9048C110.74 86.7554 110.799 86.6396 110.839 86.5598C110.859 86.52 110.874 86.4891 110.885 86.4676C110.89 86.4569 110.894 86.4484 110.897 86.4424C110.898 86.4394 110.9 86.437 110.9 86.4351C110.901 86.4342 110.901 86.4335 110.902 86.4328C110.902 86.4325 110.902 86.4323 110.902 86.432C110.902 86.4319 110.902 86.4318 110.902 86.4317C110.902 86.4317 110.902 86.4316 110.902 86.4316C110.902 86.4315 110.902 86.4315 110 86C109.098 85.5685 109.098 85.5685 109.098 85.5684C109.098 85.5684 109.098 85.5684 109.098 85.5683C109.098 85.5683 109.098 85.5682 109.098 85.5682C109.098 85.5681 109.098 85.5681 109.098 85.5681C109.098 85.568 109.098 85.5682 109.098 85.5685C109.098 85.569 109.097 85.5702 109.096 85.572C109.095 85.5755 109.092 85.5814 109.088 85.5896C109.08 85.606 109.067 85.6317 109.05 85.6664C109.015 85.7357 108.962 85.841 108.889 85.9795C108.745 86.2565 108.524 86.6667 108.225 87.1896L109.961 88.1829ZM110.932 86.3624C111.228 85.6011 111.5 84.8551 111.749 84.1242L109.855 83.4798C109.616 84.1832 109.354 84.9024 109.068 85.6376L110.932 86.3624ZM113.066 79.5535C113.457 77.8874 113.723 76.3179 113.89 74.8452L111.902 74.621C111.745 76.0139 111.492 77.5059 111.119 79.0969L113.066 79.5535ZM114.097 70.0483C114.042 68.24 113.833 66.6402 113.544 65.2496L111.586 65.6559C111.852 66.9351 112.046 68.4193 112.098 70.1092L114.097 70.0483ZM112.052 60.606C111.724 59.8918 111.419 59.3498 111.19 58.9799C111.076 58.795 110.981 58.653 110.912 58.5541C110.877 58.5046 110.849 58.4659 110.828 58.4379C110.818 58.4239 110.81 58.4126 110.803 58.4039C110.8 58.3996 110.797 58.396 110.795 58.393C110.794 58.3915 110.793 58.3902 110.792 58.389C110.791 58.3884 110.791 58.3879 110.79 58.3874C110.79 58.3872 110.79 58.3869 110.79 58.3867C110.79 58.3866 110.79 58.3864 110.79 58.3864C110.79 58.3862 110.789 58.3861 110 59C109.211 59.6139 109.211 59.6138 109.21 59.6136C109.21 59.6136 109.21 59.6134 109.21 59.6134C109.21 59.6132 109.21 59.613 109.21 59.6128C109.21 59.6125 109.209 59.6122 109.209 59.612C109.209 59.6115 109.209 59.6111 109.208 59.611C109.208 59.6106 109.208 59.6109 109.209 59.6119C109.211 59.6138 109.214 59.6183 109.219 59.6253C109.23 59.6395 109.247 59.6639 109.272 59.6988C109.32 59.7684 109.395 59.8793 109.489 60.0315C109.677 60.3359 109.943 60.8052 110.234 61.4395L112.052 60.606ZM110 59C110.64 58.2318 110.64 58.2317 110.64 58.2316C110.64 58.2316 110.64 58.2315 110.64 58.2315C110.64 58.2314 110.64 58.2313 110.639 58.2312C110.639 58.2309 110.639 58.2307 110.639 58.2304C110.638 58.2298 110.637 58.2292 110.636 58.2284C110.634 58.2268 110.632 58.2247 110.629 58.2223C110.623 58.2174 110.615 58.2107 110.604 58.2024C110.584 58.1858 110.555 58.1625 110.518 58.1333C110.444 58.075 110.337 57.9926 110.2 57.8915C109.927 57.6895 109.532 57.4118 109.037 57.1004L107.973 58.794C108.42 59.0752 108.773 59.3239 109.012 59.5001C109.131 59.5882 109.221 59.6579 109.28 59.7043C109.31 59.7275 109.331 59.7449 109.345 59.7557C109.351 59.7612 109.356 59.765 109.358 59.7671C109.36 59.7681 109.361 59.7688 109.361 59.769C109.361 59.7691 109.361 59.769 109.361 59.7689C109.361 59.7689 109.361 59.7688 109.36 59.7687C109.36 59.7686 109.36 59.7685 109.36 59.7685C109.36 59.7684 109.36 59.7684 109.36 59.7683C109.36 59.7683 109.36 59.7682 110 59ZM105.572 55.3641C104.429 54.9301 103.134 54.5747 101.751 54.4353L101.551 56.4252C102.723 56.5434 103.845 56.8477 104.862 57.2339L105.572 55.3641ZM97.7538 54.7099C96.531 55.0201 95.3039 55.56 94.1108 56.3946L95.2572 58.0334C96.25 57.339 97.2549 56.8998 98.2455 56.6485L97.7538 54.7099ZM91.2461 59.1015C90.5026 60.0151 89.7917 61.0802 89.1215 62.3139L90.8789 63.2686C91.4966 62.1316 92.1402 61.1715 92.7974 60.3638L91.2461 59.1015ZM87.5331 65.7651C87.1043 66.8623 86.6994 68.0555 86.3216 69.3516L88.2417 69.9114C88.6044 68.6669 88.9906 67.5302 89.3959 66.493L87.5331 65.7651ZM85.403 72.9553C85.2698 73.5553 85.1415 74.1733 85.0182 74.81L86.9818 75.19C87.1017 74.5706 87.2263 73.9703 87.3555 73.3887L85.403 72.9553ZM85.0182 74.81C84.8818 75.515 84.7702 76.207 84.6828 76.8867L86.6664 77.142C86.7484 76.5054 86.8531 75.8549 86.9818 75.19L85.0182 74.81ZM84.4434 81.0533C84.469 82.5066 84.6136 83.8976 84.866 85.2327L86.8312 84.8612C86.6001 83.639 86.4668 82.3606 86.4431 81.0181L84.4434 81.0533ZM86.0135 89.2849C86.5173 90.6042 87.1304 91.8612 87.8358 93.0651L89.5614 92.054C88.9077 90.9383 88.3436 89.7805 87.8819 88.5714L86.0135 89.2849ZM90.1967 96.5074C91.043 97.5819 91.9604 98.6151 92.9333 99.6154L94.367 98.2209C93.4356 97.2633 92.5654 96.2824 91.7679 95.2699L90.1967 96.5074ZM95.9139 102.447C96.9245 103.342 97.9736 104.217 99.0485 105.078L100.299 103.517C99.2439 102.672 98.2208 101.819 97.2399 100.95L95.9139 102.447ZM102.262 107.57C103.334 108.38 104.422 109.185 105.511 109.99L106.7 108.382C105.61 107.577 104.53 106.777 103.468 105.974L102.262 107.57ZM108.752 112.393C109.827 113.197 110.895 114.007 111.947 114.831L113.18 113.256C112.112 112.42 111.032 111.601 109.95 110.792L108.752 112.393ZM115.055 117.352C116.075 118.216 117.07 119.098 118.028 120.005L119.403 118.552C118.413 117.616 117.391 116.709 116.346 115.825L115.055 117.352ZM120.808 122.829C121.698 123.807 122.541 124.817 123.327 125.864L124.927 124.664C124.099 123.561 123.215 122.503 122.287 121.483L120.808 122.829ZM125.506 129.127C126.162 130.244 126.753 131.404 127.27 132.614L129.109 131.829C128.557 130.537 127.927 129.301 127.231 128.114L125.506 129.127ZM128.56 136.295C128.733 136.918 128.886 137.553 129.021 138.203L130.979 137.797C130.836 137.105 130.672 136.426 130.487 135.761L128.56 136.295ZM129.021 138.203C129.146 138.807 129.262 139.403 129.371 139.993L131.338 139.631C131.227 139.027 131.107 138.416 130.979 137.797L129.021 138.203ZM129.943 143.56C130.112 144.796 130.244 145.997 130.344 147.164L132.337 146.994C132.234 145.793 132.098 144.558 131.925 143.29L129.943 143.56ZM130.553 150.764C130.591 152.011 130.591 153.214 130.557 154.374L132.556 154.432C132.591 153.232 132.591 151.989 132.552 150.703L130.553 150.764ZM130.337 157.973C130.22 159.22 130.064 160.409 129.878 161.541L131.851 161.867C132.045 160.689 132.207 159.453 132.329 158.16L130.337 157.973ZM129.161 165.057C128.86 166.288 128.525 167.436 128.17 168.502L130.067 169.135C130.44 168.018 130.79 166.817 131.104 165.532L129.161 165.057ZM126.89 171.836C126.356 173.054 125.813 174.118 125.296 175.032L127.036 176.017C127.586 175.047 128.16 173.921 128.722 172.639L126.89 171.836ZM123.373 177.992C123.034 178.444 122.756 178.776 122.567 178.992C122.473 179.1 122.4 179.179 122.354 179.229C122.33 179.254 122.313 179.272 122.303 179.283C122.298 179.288 122.294 179.291 122.293 179.293C122.292 179.294 122.291 179.294 122.291 179.294C122.291 179.294 122.292 179.294 122.292 179.294C122.292 179.294 122.292 179.294 122.292 179.294C122.292 179.293 122.292 179.293 122.293 179.293C122.293 179.293 122.293 179.293 122.293 179.293C122.293 179.293 122.293 179.293 123 180C123.707 180.707 123.707 180.707 123.707 180.707C123.707 180.707 123.707 180.707 123.708 180.707C123.708 180.707 123.708 180.706 123.708 180.706C123.708 180.706 123.709 180.706 123.709 180.705C123.71 180.705 123.71 180.704 123.711 180.703C123.713 180.701 123.715 180.699 123.718 180.696C123.724 180.69 123.731 180.683 123.74 180.674C123.757 180.656 123.782 180.63 123.813 180.597C123.875 180.53 123.963 180.435 124.073 180.309C124.293 180.058 124.601 179.687 124.972 179.194L123.373 177.992Z" fill="#FF7D33"/>
</svg>
