<svg width="195" height="162" viewBox="0 0 195 162" fill="none" xmlns="http://www.w3.org/2000/svg">
<path d="M181 83.5L181.343 82.5606L181 83.5ZM162.503 161.08C162.547 161.63 163.03 162.041 163.58 161.997L172.551 161.278C173.102 161.233 173.512 160.751 173.468 160.201C173.424 159.65 172.942 159.24 172.391 159.284L164.417 159.923L163.778 151.949C163.734 151.398 163.252 150.988 162.701 151.032C162.15 151.076 161.74 151.558 161.784 152.109L162.503 161.08ZM17.0002 1C16.1153 0.534253 16.1152 0.534277 16.1152 0.534304C16.1152 0.534316 16.1152 0.534346 16.1152 0.53437C16.1152 0.534419 16.1151 0.534478 16.1151 0.534546C16.115 0.534683 16.1149 0.53486 16.1148 0.535076C16.1146 0.535508 16.1143 0.536099 16.1139 0.536846C16.1131 0.538341 16.112 0.540466 16.1106 0.543216C16.1077 0.548717 16.1035 0.556723 16.098 0.567205C16.0871 0.58817 16.071 0.619044 16.05 0.659606C16.0079 0.740729 15.9462 0.860612 15.8662 1.0175C15.7064 1.33126 15.4739 1.79307 15.1813 2.38887L16.9765 3.27041C17.2645 2.6839 17.4926 2.2309 17.6483 1.92541C17.7261 1.77268 17.7858 1.65683 17.8258 1.57963C17.8458 1.54103 17.8609 1.5121 17.8708 1.49304C17.8758 1.48352 17.8795 1.47646 17.8819 1.4719C17.8831 1.46962 17.8839 1.46797 17.8845 1.46694C17.8847 1.46643 17.8849 1.46607 17.885 1.46587C17.8851 1.46577 17.8851 1.46571 17.8851 1.46569C17.8851 1.46568 17.8851 1.46568 17.8851 1.46569C17.8851 1.46569 17.8851 1.46571 17.8851 1.46571C17.8851 1.46573 17.8851 1.46575 17.0002 1ZM13.4005 6.14817C12.883 7.27768 12.3125 8.55502 11.708 9.95884L13.5449 10.7498C14.1429 9.36109 14.7072 8.09779 15.2188 6.98121L13.4005 6.14817ZM10.0929 13.829C9.59682 15.0564 9.09046 16.3474 8.58237 17.6922L10.4533 18.399C10.9557 17.0693 11.4565 15.7926 11.9472 14.5784L10.0929 13.829ZM7.15462 21.6126C6.70377 22.8992 6.25792 24.2221 5.82324 25.5744L7.72729 26.1864C8.15634 24.8517 8.59663 23.5453 9.0421 22.274L7.15462 21.6126ZM4.60239 29.5624C4.21801 30.8858 3.84881 32.2296 3.5 33.5882L5.43717 34.0856C5.78046 32.7485 6.1441 31.4248 6.52301 30.1203L4.60239 29.5624ZM2.53047 37.6546C2.2317 39.0156 1.95761 40.3858 1.71324 41.7596L3.68233 42.1099C3.92172 40.7641 4.19052 39.4202 4.48396 38.0834L2.53047 37.6546ZM1.07241 45.9008C0.890279 47.2951 0.743785 48.688 0.638263 50.0737L2.63249 50.2255C2.73509 48.8783 2.87773 47.5212 3.05556 46.1598L1.07241 45.9008ZM0.448986 54.2785C0.431733 55.7016 0.464908 57.1114 0.55475 58.5011L2.55058 58.3721C2.4643 57.0374 2.43215 55.6789 2.44884 54.3027L0.448986 54.2785ZM1.01757 62.7116C1.24228 64.1279 1.53751 65.5154 1.91093 66.8657L3.83857 66.3326C3.48674 65.0604 3.2068 63.7467 2.99286 62.3982L1.01757 62.7116ZM3.31882 70.903C3.88549 72.2248 4.54619 73.4967 5.30957 74.7087L7.00188 73.6428C6.29756 72.5246 5.68487 71.3462 5.15702 70.1149L3.31882 70.903ZM7.9088 78.1467C8.85484 79.1951 9.9033 80.1758 11.0608 81.0803L12.2923 79.5044C11.2262 78.6713 10.2625 77.7697 9.39369 76.8068L7.9088 78.1467ZM14.6429 83.4349C15.2664 83.7777 15.9134 84.1028 16.5844 84.4095L17.4159 82.5905C16.7888 82.3039 16.1859 82.0008 15.6063 81.6822L14.6429 83.4349ZM16.5844 84.4095C17.2059 84.6936 17.8309 84.9605 18.4589 85.2106L19.1989 83.3526C18.6015 83.1147 18.0071 82.8608 17.4159 82.5905L16.5844 84.4095ZM22.2961 86.5233C23.6014 86.8992 24.917 87.2089 26.2406 87.4563L26.608 85.4903C25.3456 85.2544 24.0921 84.9593 22.8497 84.6014L22.2961 86.5233ZM30.2517 88.017C31.5933 88.1435 32.9404 88.2111 34.2908 88.2241L34.3099 86.2242C33.0136 86.2117 31.7228 86.1468 30.4394 86.0258L30.2517 88.017ZM38.3255 88.1043C39.6612 88.0137 40.998 87.8738 42.3338 87.6884L42.0589 85.7074C40.7673 85.8867 39.4771 86.0216 38.1902 86.1089L38.3255 88.1043ZM46.2995 87.0072C47.6069 86.7404 48.9116 86.4335 50.2116 86.0899L49.7006 84.1563C48.4357 84.4906 47.1681 84.7888 45.8997 85.0476L46.2995 87.0072ZM54.0633 84.9633C55.3327 84.5568 56.5958 84.1182 57.8509 83.6508L57.1529 81.7766C55.9256 82.2336 54.6919 82.662 53.4534 83.0585L54.0633 84.9633ZM61.5725 82.1731C62.8011 81.6554 64.0201 81.1126 65.2278 80.5479L64.3806 78.7362C63.1952 79.2905 61.9997 79.8228 60.7959 80.3301L61.5725 82.1731ZM68.8172 78.7901C70.0059 78.182 71.1814 77.555 72.3419 76.9126L71.3731 75.1628C70.231 75.7952 69.0748 76.4118 67.9063 77.0096L68.8172 78.7901ZM75.8051 74.9247C76.9573 74.24 78.092 73.5425 79.2073 72.8357L78.1367 71.1464C77.037 71.8433 75.9186 72.5308 74.7834 73.2053L75.8051 74.9247ZM82.549 70.6532C83.6666 69.9017 84.7611 69.1438 85.8304 68.3835L84.6714 66.7535C83.6158 67.5041 82.5356 68.2521 81.4329 68.9936L82.549 70.6532ZM89.0501 66.032C90.1337 65.2195 91.1861 64.4087 92.2047 63.6044L90.9653 62.0348C89.9595 62.8289 88.9203 63.6296 87.8502 64.4319L89.0501 66.032ZM95.305 61.0924C96.3656 60.2105 97.3801 59.343 98.3448 58.4966L97.0258 56.9932C96.0743 57.828 95.0732 58.684 94.0263 59.5546L95.305 61.0924ZM101.293 55.8344C102.341 54.8602 103.308 53.9282 104.186 53.051L102.773 51.6355C101.912 52.4953 100.963 53.4109 99.9314 54.3699L101.293 55.8344ZM106.96 50.1489C107.45 49.6066 107.888 49.1008 108.271 48.6369L106.729 47.3631C106.368 47.8008 105.949 48.2841 105.475 48.8083L106.96 50.1489ZM108.271 48.6369C108.676 48.1471 109.069 47.6624 109.451 47.1828L107.886 45.9373C107.512 46.4071 107.126 46.8823 106.729 47.3631L108.271 48.6369ZM111.72 44.2088C112.489 43.1534 113.199 42.1236 113.851 41.1184L112.174 40.0296C111.543 41.0022 110.853 42.0023 110.103 43.031L111.72 44.2088ZM115.796 37.8895C116.441 36.7228 117.002 35.5901 117.48 34.49L115.646 33.6926C115.196 34.7289 114.663 35.8046 114.046 36.9216L115.796 37.8895ZM118.784 30.8911C119.16 29.5738 119.403 28.3042 119.516 27.0799L117.524 26.8969C117.424 27.9848 117.206 29.1318 116.861 30.3426L118.784 30.8911ZM119.405 23.1439C119.299 22.481 119.149 21.8351 118.956 21.2059L117.044 21.7941C117.21 22.3326 117.339 22.8866 117.429 23.4573L119.405 23.1439ZM118.956 21.2059C118.732 20.4789 118.379 19.784 117.915 19.1402L116.293 20.3099C116.639 20.7898 116.889 21.2901 117.044 21.7941L118.956 21.2059ZM114.521 16.3068C113.333 15.6959 111.954 15.2502 110.418 15.0195L110.121 16.9973C111.458 17.1981 112.626 17.5812 113.607 18.0854L114.521 16.3068ZM106.195 14.9255C104.896 15.0485 103.526 15.3081 102.096 15.7239L102.654 17.6443C103.969 17.2619 105.216 17.0271 106.384 16.9166L106.195 14.9255ZM98.2256 17.181C97.0458 17.7246 95.8356 18.3718 94.5999 19.1319L95.6476 20.8355C96.8187 20.1152 97.9586 19.5061 99.0625 18.9975L98.2256 17.181ZM91.2346 21.442C90.2015 22.2252 89.1541 23.0877 88.095 24.0344L89.4279 25.5256C90.4486 24.6132 91.4544 23.7851 92.4429 23.0357L91.2346 21.442ZM85.1613 26.8472C84.6972 27.3227 84.2313 27.8146 83.7637 28.3234L85.2364 29.6766C85.6906 29.1824 86.1427 28.7051 86.5925 28.2443L85.1613 26.8472ZM83.7637 28.3234C83.3275 28.7981 82.895 29.2846 82.4667 29.7823L83.9825 31.0869C84.397 30.6053 84.8151 30.1351 85.2364 29.6766L83.7637 28.3234ZM80.0098 32.8184C79.2315 33.8399 78.4704 34.898 77.729 35.9889L79.3831 37.1131C80.1048 36.0512 80.8449 35.0225 81.6007 34.0305L80.0098 32.8184ZM75.6217 39.2649C74.9522 40.3646 74.3027 41.4913 73.6754 42.6418L75.4313 43.5993C76.0436 42.4763 76.6773 41.3771 77.33 40.3048L75.6217 39.2649ZM71.8909 46.1019C71.3256 47.2624 70.7831 48.4426 70.2654 49.6397L72.1011 50.4335C72.6068 49.2641 73.1368 48.1112 73.6889 46.9777L71.8909 46.1019ZM68.8006 53.2477C68.3407 54.4581 67.9068 55.6823 67.5009 56.9175L69.4009 57.5419C69.7973 56.336 70.221 55.1404 70.6702 53.958L68.8006 53.2477ZM66.3713 60.6451C66.0237 61.8973 65.7059 63.1579 65.4199 64.424L67.3707 64.8648C67.6495 63.6308 67.9593 62.4017 68.2984 61.18L66.3713 60.6451ZM64.657 68.2476C64.4349 69.5324 64.247 70.8203 64.0953 72.1083L66.0816 72.3422C66.2289 71.0909 66.4116 69.8387 66.6278 68.5884L64.657 68.2476ZM63.7495 75.9996C63.6719 77.3053 63.6337 78.6084 63.6373 79.906L65.6373 79.9004C65.6339 78.6457 65.6707 77.3841 65.746 76.1184L63.7495 75.9996ZM63.7783 83.8201C63.8702 85.1289 64.0078 86.4291 64.1934 87.7172L66.173 87.4319C65.9945 86.1937 65.862 84.942 65.7733 83.68L63.7783 83.8201ZM64.9051 91.5791C65.195 92.861 65.537 94.1271 65.9336 95.3742L67.8395 94.768C67.4608 93.5771 67.1336 92.3661 66.8559 91.138L64.9051 91.5791ZM67.2959 99.0688C67.8063 100.278 68.3742 101.464 69.0019 102.624L70.7608 101.672C70.1645 100.57 69.6244 99.442 69.1384 98.2909L67.2959 99.0688ZM71.0506 105.995C71.4194 106.539 71.8031 107.075 72.2023 107.603L73.798 106.397C73.4194 105.896 73.0553 105.388 72.7055 104.872L71.0506 105.995ZM72.2023 107.603C72.6659 108.216 73.1578 108.776 73.6776 109.284L75.0746 107.852C74.6299 107.418 74.2039 106.934 73.798 106.397L72.2023 107.603ZM77.3442 111.813C78.676 112.425 80.1017 112.808 81.6042 112.997L81.8531 111.013C80.5291 110.846 79.3044 110.513 78.1794 109.996L77.3442 111.813ZM85.9592 113.048C87.3151 112.929 88.719 112.699 90.1642 112.373L89.7247 110.422C88.3514 110.731 87.0374 110.946 85.7857 111.055L85.9592 113.048ZM94.2436 111.25C95.5386 110.836 96.8638 110.363 98.2155 109.84L97.4942 107.975C96.1732 108.485 94.8857 108.945 93.6341 109.346L94.2436 111.25ZM102.085 108.247C103.331 107.707 104.597 107.133 105.881 106.533L105.034 104.721C103.764 105.315 102.515 105.881 101.289 106.413L102.085 108.247ZM109.631 104.735C110.858 104.134 112.098 103.515 113.35 102.884L112.45 101.098C111.202 101.727 109.969 102.342 108.751 102.939L109.631 104.735ZM117.049 101.004C118.269 100.38 119.501 99.7481 120.738 99.1143L119.827 97.3341C118.587 97.9691 117.358 98.5994 116.139 99.2227L117.049 101.004ZM124.426 97.2333C125.652 96.6118 126.884 95.9916 128.121 95.3768L127.231 93.5857C125.988 94.2035 124.751 94.8262 123.522 95.4496L124.426 97.2333ZM131.831 93.5606C133.071 92.9633 134.316 92.3755 135.562 91.8011L134.725 89.9848C133.467 90.5645 132.213 91.1571 130.963 91.7586L131.831 93.5606ZM139.321 90.1155C140.586 89.5654 141.852 89.0332 143.117 88.5232L142.369 86.6683C141.086 87.1857 139.803 87.7249 138.524 88.2815L139.321 90.1155ZM146.952 87.047C148.249 86.5731 149.543 86.1273 150.832 85.7137L150.221 83.8092C148.904 84.2316 147.585 84.6863 146.266 85.1685L146.952 87.047ZM154.758 84.5551C156.09 84.198 157.414 83.8809 158.73 83.6088L158.325 81.6503C156.968 81.9308 155.606 82.257 154.24 82.6233L154.758 84.5551ZM162.741 82.9197C164.101 82.736 165.449 82.6073 166.784 82.5391L166.681 80.5417C165.288 80.6129 163.884 80.7471 162.473 80.9377L162.741 82.9197ZM170.828 82.5253C172.181 82.5886 173.517 82.7231 174.834 82.9347L175.152 80.96C173.756 80.7359 172.346 80.5941 170.922 80.5275L170.828 82.5253ZM178.748 83.8134C179.39 84.0007 180.026 84.2091 180.657 84.4394L181.343 82.5606C180.67 82.3151 179.992 82.093 179.309 81.8935L178.748 83.8134ZM180.657 84.4394C181.322 84.6818 181.954 84.9403 182.554 85.2141L183.384 83.3942C182.734 83.098 182.054 82.8199 181.343 82.5606L180.657 84.4394ZM185.984 87.1659C187.112 87.9641 188.079 88.8395 188.901 89.7816L190.408 88.4667C189.478 87.4002 188.391 86.4193 187.14 85.5334L185.984 87.1659ZM191.059 93.0186C191.632 94.1768 192.06 95.4107 192.357 96.7119L194.307 96.2671C193.978 94.8257 193.499 93.4422 192.852 92.1327L191.059 93.0186ZM192.859 100.654C192.908 101.95 192.857 103.294 192.716 104.676L194.705 104.88C194.855 103.416 194.91 101.978 194.857 100.578L192.859 100.654ZM192.083 108.678C191.811 109.979 191.473 111.301 191.078 112.64L192.996 113.206C193.405 111.821 193.756 110.446 194.041 109.089L192.083 108.678ZM189.786 116.54C189.322 117.811 188.815 119.089 188.272 120.368L190.113 121.15C190.668 119.841 191.188 118.532 191.665 117.226L189.786 116.54ZM186.579 124.126C185.991 125.364 185.375 126.598 184.738 127.823L186.512 128.746C187.16 127.501 187.786 126.245 188.386 124.984L186.579 124.126ZM182.771 131.463C182.093 132.674 181.4 133.87 180.698 135.048L182.416 136.072C183.127 134.88 183.829 133.668 184.516 132.44L182.771 131.463ZM178.533 138.58C177.785 139.768 177.035 140.93 176.289 142.059L177.958 143.161C178.711 142.02 179.47 140.847 180.226 139.645L178.533 138.58ZM173.969 145.495C173.15 146.682 172.348 147.819 171.572 148.898L173.196 150.065C173.979 148.976 174.789 147.829 175.615 146.631L173.969 145.495ZM169.131 152.229C168.216 153.454 167.366 154.567 166.604 155.548L168.183 156.775C168.953 155.784 169.811 154.662 170.734 153.426L169.131 152.229ZM164.049 158.766C163.63 159.281 163.302 159.679 163.078 159.947C162.967 160.081 162.881 160.183 162.824 160.251C162.795 160.285 162.774 160.31 162.759 160.327C162.752 160.336 162.747 160.342 162.744 160.346C162.742 160.348 162.741 160.35 162.74 160.35C162.739 160.351 162.739 160.351 162.739 160.351C162.739 160.352 162.739 160.352 162.739 160.352C162.739 160.352 162.739 160.352 162.739 160.352L162.739 160.352C162.739 160.352 162.739 160.352 163.5 161C164.261 161.648 164.261 161.648 164.262 161.648C164.262 161.648 164.262 161.648 164.262 161.648C164.262 161.648 164.262 161.648 164.262 161.648C164.262 161.648 164.262 161.648 164.262 161.648C164.262 161.647 164.263 161.647 164.263 161.646C164.264 161.645 164.266 161.643 164.268 161.641C164.272 161.636 164.278 161.629 164.286 161.62C164.301 161.602 164.324 161.575 164.353 161.54C164.413 161.469 164.501 161.364 164.615 161.227C164.843 160.953 165.177 160.549 165.601 160.027L164.049 158.766Z" fill="#FF7D33"/>
</svg>
